<svg xmlns="http://www.w3.org/2000/svg" version="1.1" xmlns:xlink="http://www.w3.org/1999/xlink" xmlns:svgjs="http://svgjs.dev/svgjs" width="128" height="128" viewBox="0 0 128 128"><g transform="matrix(0.8046875,0,0,0.8046875,12.760752631578946,12.260082412432773)"><svg viewBox="0 0 95 95" data-background-color="#ffffff" preserveAspectRatio="xMidYMid meet" height="128" width="128" xmlns="http://www.w3.org/2000/svg" xmlns:xlink="http://www.w3.org/1999/xlink"><g id="tight-bounds" transform="matrix(1,0,0,1,-0.24049999999999727,0.2212832118338497)"><svg viewBox="0 0 95.48099999999998 94.55743357633231" height="94.55743357633231" width="95.48099999999998"><g><svg viewBox="0 0 95.48099999999998 94.55743357633231" height="94.55743357633231" width="95.48099999999998"><g><svg viewBox="0 0 95.48099999999998 94.55743357633231" height="94.55743357633231" width="95.48099999999998"><g id="textblocktransform"><svg viewBox="0 0 95.48099999999998 94.55743357633231" height="94.55743357633231" width="95.48099999999998" id="textblock"><g><svg viewBox="0 0 95.48099999999998 94.55743357633231" height="94.55743357633231" width="95.48099999999998"><g><svg viewBox="0 0 95.48099999999998 94.55743357633231" height="94.55743357633231" width="95.48099999999998"><g><svg xmlns="http://www.w3.org/2000/svg" xmlns:xlink="http://www.w3.org/1999/xlink" version="1.1" x="0" y="0" viewBox="6.613999999999996 12.024000000000001 84.77400000000002 83.95399999999998" enable-background="new 0 0 100 100" xml:space="preserve" height="94.55743357633231" width="95.48099999999998" class="icon-icon-0" data-fill-palette-color="accent" id="icon-0"><g fill="#f56e6e" data-fill-palette-color="accent"><path d="M55.265 14.551c18.524 0 33.595 15.071 33.595 33.594 0 8.853-3.448 16.91-9.063 22.917 0.002 0.595-0.021 1.197-0.094 1.813-0.088 0.732-0.23 1.436-0.414 2.108L79.393 75c7.358-6.617 11.995-16.204 11.995-26.854 0-19.918-16.205-36.122-36.123-36.122-8.534 0-16.381 2.981-22.569 7.948l4.297 0.007C42.257 16.551 48.529 14.551 55.265 14.551" fill="#f56e6e" data-fill-palette-color="accent"></path><path d="M23.359 63.6c-0.792-0.499-1.833-0.772-2.933-0.772-0.861 0-1.691 0.171-2.34 0.464-2.397 0.875-3.812 4.238-3.36 7.997 0.479 3.983 2.867 6.987 5.628 6.987h0.005l0.156 0.004c2.689 0 5.079-3.006 5.558-6.991C26.484 67.886 25.382 64.79 23.359 63.6M24.21 71.064c-0.353 2.944-2.011 5.339-3.694 5.339l-0.076-0.001-0.156 0.001c-1.682 0-3.339-2.395-3.693-5.339-0.378-3.135 0.793-5.518 2.204-6.035 1.054-0.473 2.662-0.409 3.59 0.174C23.56 65.894 24.564 68.129 24.21 71.064" fill="#f56e6e" data-fill-palette-color="accent"></path><path d="M68.919 63.292c-2.398 0.875-3.812 4.238-3.359 7.997 0.48 3.983 2.867 6.987 5.629 6.987h0.005l0.156 0.004c2.688 0 5.075-3.006 5.558-6.991 0.408-3.403-0.692-6.499-2.716-7.688C72.779 62.712 70.396 62.623 68.919 63.292M75.045 71.064c-0.355 2.944-2.014 5.339-3.695 5.339l-0.076-0.001-0.156 0.001c-1.682 0-3.341-2.395-3.695-5.339-0.379-3.135 0.793-5.518 2.204-6.035 1.058-0.475 2.662-0.406 3.591 0.174C74.392 65.894 75.396 68.129 75.045 71.064" fill="#f56e6e" data-fill-palette-color="accent"></path><path d="M76.232 77.348l-0.334 0.507c-0.48 0.731-1.117 1.35-1.839 1.787l-0.156 0.095-0.109 0.146c-0.697 0.937-1.541 1.455-2.393 1.423-0.695 0.045-1.525-0.428-2.212-1.292l-0.12-0.15-0.17-0.093c-0.816-0.44-1.53-1.1-2.064-1.906l-0.329-0.5-1.729 0.264-0.287-1.57-10.588-1.679-0.389 0.589c-0.807 1.225-1.871 2.258-3.078 2.99l-0.184 0.11-0.127 0.171c-1.177 1.577-2.568 2.445-3.916 2.445l-0.229-0.002-0.137 0.002c-1.277 0-2.608-0.79-3.749-2.228l-0.139-0.176-0.198-0.105c-1.366-0.74-2.562-1.844-3.455-3.192l-0.386-0.583-10.852 1.65-0.282 1.519L25.4 77.348l-0.332 0.507c-0.485 0.733-1.121 1.351-1.843 1.787l-0.156 0.095-0.109 0.146c-0.697 0.937-1.541 1.455-2.394 1.423-0.729 0.045-1.523-0.428-2.211-1.292l-0.119-0.15-0.171-0.093c-0.813-0.44-1.526-1.1-2.062-1.906l-0.331-0.5-7.111 1.081-1.947 10.52 0.688 0.296c3.109 1.333 7.855 2.097 13.021 2.097 1.344 0 2.654-0.07 3.94-0.174l-0.208 1.121 0.804 0.346c4.932 2.113 12.479 3.326 20.707 3.326 8.347 0 16.224-1.304 21.072-3.485l0.78-0.353-0.174-0.953c1.277 0.102 2.578 0.172 3.91 0.172 5.244 0 10.196-0.821 13.251-2.198l0.669-0.302L83.18 78.451 76.232 77.348zM24.615 89.273c-1.393 0.128-2.823 0.208-4.293 0.208-4.472 0-8.725-0.618-11.587-1.67l1.428-7.711 4.632-0.704c0.613 0.789 1.368 1.447 2.213 1.933 1.048 1.253 2.335 1.913 3.559 1.851 1.401 0.065 2.713-0.66 3.788-2.028 0.724-0.464 1.379-1.065 1.92-1.763l0.166 0.026L24.615 89.273zM45.565 93.788c-7.382 0-14.401-1.05-19.037-2.821l2.405-12.984 7.95-1.21c0.993 1.324 2.236 2.427 3.636 3.221 1.539 1.86 3.422 2.882 5.323 2.882l0.138-0.005 0.229 0.005c2.002 0 3.963-1.119 5.542-3.157 1.212-0.766 2.3-1.778 3.18-2.96l7.684 1.218 2.339 12.854C60.326 92.688 53.173 93.788 45.565 93.788M71.154 89.481c-1.457 0-2.875-0.082-4.258-0.208l-1.784-9.799 0.515-0.078c0.615 0.787 1.368 1.447 2.214 1.933 1.047 1.253 2.334 1.913 3.561 1.851 1.397 0.065 2.712-0.66 3.786-2.028 0.726-0.466 1.38-1.067 1.921-1.763l4.464 0.707 1.389 7.634C80.103 88.832 75.768 89.481 71.154 89.481" fill="#f56e6e" data-fill-palette-color="accent"></path><path d="M45.733 53.073c-1.324 0-2.599 0.259-3.609 0.718-3.669 1.338-5.823 6.547-5.121 12.385 0.745 6.184 4.401 10.847 8.506 10.847l0.135-0.005 0.233 0.005c4.103 0 7.759-4.663 8.503-10.847 0.638-5.298-1.047-10.1-4.166-11.93C49.009 53.489 47.417 53.073 45.733 53.073M52.205 65.914c-0.591 4.919-3.43 8.921-6.328 8.92l-0.233-0.003-0.135 0.003c-2.9 0-5.739-4.001-6.33-8.92-0.575-4.762 1.015-9.089 3.771-10.096 1.803-0.815 4.545-0.695 6.128 0.299C51.409 57.486 52.725 61.607 52.205 65.914" fill="#f56e6e" data-fill-palette-color="accent"></path><path d="M17.882 43.992l0.003 15.49 6.86-15.49h17.267l4.124 8.582 2.805-8.582h18.137l6.909 15.398 0.046-15.478c2.629-0.451 4.636-2.748 4.636-5.505v-8.659c0-3.934-3.201-7.136-7.134-7.136H19.832c-3.934 0-7.135 3.202-7.135 7.136v9.021C12.697 41.636 15.021 43.971 17.882 43.992M14.887 29.748c0-2.727 2.218-4.946 4.945-4.946h51.702c2.726 0 4.945 2.219 4.945 4.946v8.659c0 1.873-1.522 3.396-3.396 3.396h-1.235l-0.023 7.427-3.331-7.427H47.352l-1.604 4.909-2.357-4.909H23.32l-3.248 7.334-0.001-7.334h-2.15c-1.674 0-3.034-1.361-3.034-3.034V29.748z" fill="#f56e6e" data-fill-palette-color="accent"></path><path d="M33.632 29.73h23.331c0.346 0 0.626-0.281 0.626-0.625 0-0.345-0.28-0.625-0.626-0.625H33.632c-0.347 0-0.625 0.28-0.625 0.625C33.007 29.45 33.285 29.73 33.632 29.73" fill="#f56e6e" data-fill-palette-color="accent"></path><path d="M56.963 36.264H33.632c-0.347 0-0.625 0.28-0.625 0.625s0.278 0.625 0.625 0.625h23.331c0.346 0 0.626-0.28 0.626-0.625S57.309 36.264 56.963 36.264" fill="#f56e6e" data-fill-palette-color="accent"></path><path d="M26.236 33.623h38.121c0.347 0 0.625-0.28 0.625-0.625s-0.278-0.625-0.625-0.625H26.236c-0.345 0-0.625 0.28-0.625 0.625S25.892 33.623 26.236 33.623" fill="#f56e6e" data-fill-palette-color="accent"></path></g></svg></g></svg></g></svg></g></svg></g></svg></g></svg></g><defs></defs></svg><rect width="95.48099999999998" height="94.55743357633231" fill="none" stroke="none" visibility="hidden"></rect></g></svg></g></svg>